<svg width="21" height="20" viewBox="0 0 21 20" fill="none" xmlns="http://www.w3.org/2000/svg">
<path d="M20.0555 15H18.7519L17.9167 11.877V8C17.9145 6.31815 17.2649 4.69324 16.0866 3.42253C14.9084 2.15181 13.2802 1.32026 11.5 1.08V0H9.3611V1.08C7.5809 1.32026 5.95273 2.15181 4.77444 3.42253C3.59616 4.69324 2.94654 6.31815 2.94443 8V11.877L2.10919 15H0.805542V17H6.30462C6.53805 17.8576 7.07041 18.618 7.81758 19.1611C8.56476 19.7042 9.48416 19.9991 10.4305 19.9991C11.3769 19.9991 12.2963 19.7042 13.0435 19.1611C13.7907 18.618 14.323 17.8576 14.5565 17H20.0555V15ZM5.05124 12.243L5.08332 8C5.08332 6.67392 5.64669 5.40215 6.64948 4.46447C7.65228 3.52678 9.01237 3 10.4305 3C11.8487 3 13.2088 3.52678 14.2116 4.46447C15.2144 5.40215 15.7778 6.67392 15.7778 8V12L16.5563 15H4.31439L5.05124 12.243ZM10.4305 18C10.0568 17.9989 9.68985 17.906 9.36661 17.7305C9.04338 17.555 8.77519 17.303 8.58896 17H12.2721C12.0859 17.303 11.8177 17.555 11.4945 17.7305C11.1712 17.906 10.8043 17.9989 10.4305 18Z" fill="#9A9AB0"/>
</svg>
