<svg width="24" height="23" viewBox="0 0 24 23" fill="none" xmlns="http://www.w3.org/2000/svg">
<path fill-rule="evenodd" clip-rule="evenodd" d="M12 21.8364C5.92487 21.8364 1 17.2182 1 11.5213C1 5.82435 5.92487 1.20609 12 1.20609C18.0751 1.20609 23 5.82435 23 11.5213C23 17.2182 18.0751 21.8364 12 21.8364ZM19.3995 16.3269C20.4086 14.9631 21 13.3069 21 11.5213C21 6.86015 16.9706 3.08157 12 3.08157C7.02944 3.08157 3 6.86015 3 11.5213C3 13.3069 3.59138 14.9631 4.6005 16.3269C5.72565 14.9332 8.36919 14.3348 11.9971 14.3345C9.75934 14.3332 8 12.8584 8 9.64577C8 7.54125 9.5791 5.8948 12 5.8948C14.4142 5.8948 16 7.69675 16 9.83332C16 12.9088 14.2181 14.3345 12 14.3345C15.6294 14.3345 18.274 14.9328 19.3995 16.3269ZM17.9647 17.8414C17.672 16.8545 15.5694 16.21 12 16.21C8.43062 16.21 6.32801 16.8545 6.03532 17.8414C7.6233 19.1603 9.71194 19.9609 12 19.9609C14.2881 19.9609 16.3767 19.1603 17.9647 17.8414ZM10 9.64577C10 11.7738 10.8182 12.459 12 12.459C13.1777 12.459 14 11.8011 14 9.83332C14 8.66154 13.2157 7.77029 12 7.77029C10.7337 7.77029 10 8.53532 10 9.64577Z" fill="#9A9AB0"/>
</svg>
