<svg width="24" height="23" viewBox="0 0 24 23" fill="none" xmlns="http://www.w3.org/2000/svg">
<path d="M20 9.68467H21V4.99596H3V9.68467H4C4.53043 9.68467 5.03914 9.88227 5.41421 10.234C5.78929 10.5857 6 11.0627 6 11.5602C6 12.0576 5.78929 12.5346 5.41421 12.8863C5.03914 13.238 4.53043 13.4356 4 13.4356H3V18.1244H21V13.4356H20C19.4696 13.4356 18.9609 13.238 18.5858 12.8863C18.2107 12.5346 18 12.0576 18 11.5602C18 11.0627 18.2107 10.5857 18.5858 10.234C18.9609 9.88227 19.4696 9.68467 20 9.68467ZM19 15.193V16.2489H5V15.193C5.85953 14.9857 6.62115 14.5163 7.16498 13.8587C7.7088 13.201 8.00395 12.3924 8.00395 11.5602C8.00395 10.7279 7.7088 9.91933 7.16498 9.26166C6.62115 8.60398 5.85953 8.13458 5 7.92734V6.87144H19V7.92734C18.1405 8.13458 17.3788 8.60398 16.835 9.26166C16.2912 9.91933 15.9961 10.7279 15.9961 11.5602C15.9961 12.3924 16.2912 13.201 16.835 13.8587C17.3788 14.5163 18.1405 14.9857 19 15.193Z" fill="#9A9AB0"/>
<path d="M13.1677 8.22699L9.16772 13.8534L10.8318 14.8937L14.8318 9.26732L13.1677 8.22699Z" fill="#9A9AB0"/>
<path d="M11 8.74693H9V10.6224H11V8.74693Z" fill="#9A9AB0"/>
<path d="M15 12.4979H13V14.3734H15V12.4979Z" fill="#9A9AB0"/>
</svg>
