<svg width="24" height="23" viewBox="0 0 24 23" fill="none" xmlns="http://www.w3.org/2000/svg">
<path fill-rule="evenodd" clip-rule="evenodd" d="M19.43 12.5181C19.47 12.218 19.5 11.918 19.5 11.5991C19.5 11.2803 19.47 10.9802 19.43 10.6801L21.54 9.13286C21.73 8.9922 21.78 8.73901 21.66 8.53271L19.66 5.28812C19.57 5.13808 19.4 5.05368 19.22 5.05368C19.16 5.05368 19.1 5.06306 19.05 5.08181L16.56 6.01956C16.04 5.64446 15.48 5.335 14.87 5.10057L14.49 2.61555C14.46 2.39049 14.25 2.22169 14 2.22169H10C9.75002 2.22169 9.54002 2.39049 9.51002 2.61555L9.13002 5.10057C8.52002 5.335 7.96002 5.65384 7.44002 6.01956L4.95002 5.08181C4.89002 5.06306 4.83002 5.05368 4.77002 5.05368C4.60002 5.05368 4.43002 5.13808 4.34002 5.28812L2.34002 8.53271C2.21002 8.73901 2.27002 8.9922 2.46002 9.13286L4.57002 10.6801C4.53002 10.9802 4.50002 11.2897 4.50002 11.5991C4.50002 11.9086 4.53002 12.218 4.57002 12.5181L2.46002 14.0654C2.27002 14.2061 2.22002 14.4592 2.34002 14.6655L4.34002 17.9101C4.43002 18.0602 4.60002 18.1446 4.78002 18.1446C4.84002 18.1446 4.90002 18.1352 4.95002 18.1164L7.44002 17.1787C7.96002 17.5538 8.52002 17.8633 9.13002 18.0977L9.51002 20.5827C9.54002 20.8078 9.75002 20.9766 10 20.9766H14C14.25 20.9766 14.46 20.8078 14.49 20.5827L14.87 18.0977C15.48 17.8633 16.04 17.5444 16.56 17.1787L19.05 18.1164C19.11 18.1352 19.17 18.1446 19.23 18.1446C19.4 18.1446 19.57 18.0602 19.66 17.9101L21.66 14.6655C21.78 14.4592 21.73 14.2061 21.54 14.0654L19.43 12.5181ZM17.45 10.9146C17.49 11.2053 17.5 11.4022 17.5 11.5991C17.5 11.7961 17.48 12.0024 17.45 12.2837L17.31 13.3433L18.2 13.9998L19.28 14.7875L18.58 15.9221L17.31 15.4439L16.27 15.05L15.37 15.6877C14.94 15.9878 14.53 16.2128 14.12 16.3722L13.06 16.7755L12.9 17.8351L12.7 19.1011H11.3L11.11 17.8351L10.95 16.7755L9.89002 16.3722C9.46002 16.2034 9.06002 15.9878 8.66002 15.7064L7.75002 15.05L6.69002 15.4533L5.42002 15.9315L4.72002 14.7968L5.80002 14.0091L6.69002 13.3527L6.55002 12.2931C6.52002 12.0024 6.50002 11.7867 6.50002 11.5991C6.50002 11.4116 6.52002 11.1959 6.55002 10.9146L6.69002 9.85493L5.80002 9.1985L4.72002 8.4108L5.42002 7.27613L6.69002 7.75438L7.73002 8.14823L8.63002 7.51057C9.06002 7.21049 9.47002 6.98543 9.88002 6.82601L10.94 6.42278L11.1 5.36313L11.3 4.09718H12.69L12.88 5.36313L13.04 6.42278L14.1 6.82601C14.53 6.99481 14.93 7.21049 15.33 7.49181L16.24 8.14823L17.3 7.745L18.57 7.26675L19.27 8.40142L18.2 9.1985L17.31 9.85493L17.45 10.9146ZM12 7.84815C9.79002 7.84815 8.00002 9.52671 8.00002 11.5991C8.00002 13.6715 9.79002 15.3501 12 15.3501C14.21 15.3501 16 13.6715 16 11.5991C16 9.52671 14.21 7.84815 12 7.84815ZM12 13.4746C10.9 13.4746 10 12.6306 10 11.5991C10 10.5676 10.9 9.72364 12 9.72364C13.1 9.72364 14 10.5676 14 11.5991C14 12.6306 13.1 13.4746 12 13.4746Z" fill="#9A9AB0"/>
</svg>
