<svg width="24" height="24" viewBox="0 0 24 24" fill="none" xmlns="http://www.w3.org/2000/svg">
<path fill-rule="evenodd" clip-rule="evenodd" d="M20 5.52977V15.7063C21.1046 15.7063 22 14.8779 22 13.8561V4.60462C22 3.58274 21.1046 2.75433 20 2.75433H10C8.89543 2.75433 8 3.58274 8 4.60462H19C19.5523 4.60462 20 5.01882 20 5.52977ZM17 18.4818V8.3052C17 7.79425 16.5523 7.38005 16 7.38005H5C5 6.35817 5.89543 5.52977 7 5.52977H17C18.1046 5.52977 19 6.35817 19 7.38005V16.6315C19 17.6534 18.1046 18.4818 17 18.4818ZM14 8.3052H4C2.89543 8.3052 2 9.1336 2 10.1555V19.4069C2 20.4288 2.89543 21.2572 4 21.2572H14C15.1046 21.2572 16 20.4288 16 19.4069V10.1555C16 9.1336 15.1046 8.3052 14 8.3052ZM4 19.4069V10.1555H14V19.4069H4Z" fill="#9A9AB0"/>
</svg>
